<mxfile host="app.diagrams.net" modified="2023-11-16T17:33:56.851Z" agent="Mozilla/5.0 (Windows NT 10.0; Win64; x64) AppleWebKit/537.36 (KHTML, like Gecko) Chrome/119.0.0.0 Safari/537.36" version="22.1.2" etag="7dGUCa0KQTbk7udFJiis" type="gitlab">
  <diagram name="Page-1" id="MCOMy2z1TTV1OQlAJ3qz">
    <mxGraphModel>
      <root>
        <mxCell id="0" />
        <mxCell id="1" parent="0" />
      </root>
    </mxGraphModel>
  </diagram>
</mxfile>
